<?xml version="1.0" encoding="UTF-8"?><svg id="Layer_1" xmlns="http://www.w3.org/2000/svg" viewBox="0 0 1000 117.29"><defs><style>.cls-1{fill:#000019;}</style></defs><polygon class="cls-1" points="374.39 52.86 347.59 52.86 347.59 23.95 331.87 23.95 331.87 94.48 347.59 94.48 347.59 65.06 374.39 65.06 374.39 94.48 390.11 94.48 390.11 23.95 374.39 23.95 374.39 52.86"/><path class="cls-1" d="M439.58,40.37c-4.03-2.08-8.7-3.12-14-3.12s-10.13,1.16-14.26,3.48c-4.13,2.32-7.37,5.69-9.72,10.12-2.35,4.44-3.53,9.74-3.53,15.92s1.14,11.49,3.43,15.92c2.28,4.43,5.5,7.81,9.67,10.12,4.17,2.32,9,3.48,14.51,3.48,4.57,0,8.67-.79,12.29-2.37,3.62-1.58,6.61-3.78,8.97-6.6,2.35-2.82,3.93-6.11,4.73-9.88h-15.31c-.67,2.35-1.91,4.18-3.73,5.49-1.81,1.31-4.03,1.96-6.65,1.96-2.35,0-4.42-.57-6.19-1.71-1.78-1.14-3.17-2.77-4.18-4.89-1.01-2.12-1.55-4.62-1.61-7.51h38.59v-5.74c0-6.05-1.16-11.15-3.48-15.31-2.32-4.17-5.49-7.29-9.52-9.37Zm-25.49,20.25c.13-2.28,.67-4.33,1.61-6.15,.94-1.81,2.28-3.24,4.03-4.28,1.75-1.04,3.86-1.56,6.35-1.56s4.5,.52,6.25,1.56c1.75,1.04,3.06,2.47,3.93,4.28,.87,1.82,1.31,3.86,1.31,6.15h-23.47Z"/><path class="cls-1" d="M510.87,81.83c-.57-.57-.86-1.56-.86-2.97v-22.07c0-3.96-.84-7.4-2.52-10.33-1.68-2.92-4.35-5.19-8.01-6.8-3.66-1.62-8.38-2.42-14.16-2.42-8.4,0-14.73,1.73-18.99,5.19-4.27,3.46-6.6,8.31-7,14.56h15.92c.07-2.68,1.02-4.75,2.87-6.19,1.85-1.44,4.42-2.17,7.71-2.17,2.75,0,4.97,.55,6.65,1.66,1.68,1.11,2.52,2.74,2.52,4.89,0,1.75-.62,3.11-1.86,4.08-1.25,.97-3.17,1.46-5.79,1.46h-9.07c-6.05,0-11.07,1.46-15.07,4.38-4,2.92-5.99,7.37-5.99,13.35,0,3.76,.82,6.99,2.47,9.67,1.65,2.69,3.93,4.72,6.85,6.09,2.92,1.38,6.23,2.06,9.92,2.06,4.3,0,8.1-.96,11.39-2.87,3.29-1.92,5.78-4.75,7.46-8.52h.2v1.31c0,2.69,.84,4.74,2.52,6.15,1.68,1.41,4.17,2.12,7.46,2.12h10.28v-11.79h-1.91c-1.41,0-2.4-.29-2.97-.86Zm-15.87-11.74c0,3.36-.64,6.09-1.92,8.21-1.27,2.11-2.9,3.68-4.89,4.68-1.98,1.01-4.18,1.51-6.6,1.51-2.75,0-4.83-.64-6.25-1.91-1.41-1.28-2.11-2.92-2.11-4.94s.67-3.61,2.01-4.79c1.35-1.17,3.39-1.83,6.15-1.96l3.73-.3c2.62-.2,4.7-.71,6.25-1.51,1.55-.81,2.69-1.98,3.43-3.53h.2v4.54Z"/><path class="cls-1" d="M560.29,42.08c0,2.29,.06,4.07,.2,5.34h-.2c-1.62-3.16-3.92-5.64-6.9-7.46-2.99-1.82-6.44-2.72-10.33-2.72-4.37,0-8.36,1.14-11.99,3.42-3.63,2.29-6.52,5.64-8.67,10.08-2.15,4.44-3.22,9.77-3.22,16.02s1.07,11.59,3.22,16.02c2.15,4.43,5.04,7.79,8.67,10.08,3.63,2.28,7.63,3.42,11.99,3.42,3.89,0,7.34-.9,10.33-2.72,2.99-1.81,5.29-4.3,6.9-7.46h.2c-.07,1.35-.1,3.33-.1,5.95v2.42h14.91V15.79h-15.01v26.29Zm-1.31,34.36c-.94,2.69-2.35,4.77-4.23,6.25s-4.2,2.21-6.95,2.21-4.97-.74-6.85-2.21c-1.88-1.48-3.31-3.56-4.28-6.25s-1.46-5.91-1.46-9.67,.49-6.99,1.46-9.67c.97-2.68,2.4-4.77,4.28-6.25,1.88-1.47,4.17-2.21,6.85-2.21s5.07,.74,6.95,2.21c1.88,1.48,3.29,3.56,4.23,6.25,.94,2.69,1.41,5.91,1.41,9.67s-.47,6.99-1.41,9.67Z"/><path class="cls-1" d="M624.07,42.08c0,2.29,.06,4.07,.2,5.34h-.2c-1.62-3.16-3.92-5.64-6.9-7.46-2.99-1.82-6.44-2.72-10.33-2.72-4.37,0-8.36,1.14-11.99,3.42-3.63,2.29-6.52,5.64-8.67,10.08-2.15,4.44-3.22,9.77-3.22,16.02s1.07,11.59,3.22,16.02c2.15,4.43,5.04,7.79,8.67,10.08,3.63,2.28,7.63,3.42,11.99,3.42,3.89,0,7.34-.9,10.33-2.72,2.99-1.81,5.29-4.3,6.9-7.46h.2c-.07,1.35-.1,3.33-.1,5.95v22.57h14.91V39.06h-15.01v3.02Zm-1.31,34.36c-.94,2.69-2.35,4.77-4.23,6.25s-4.2,2.21-6.95,2.21-4.97-.74-6.85-2.21c-1.88-1.48-3.31-3.56-4.28-6.25s-1.46-5.91-1.46-9.67,.49-6.99,1.46-9.67c.97-2.68,2.4-4.77,4.28-6.25,1.88-1.47,4.17-2.21,6.85-2.21s5.07,.74,6.95,2.21c1.88,1.48,3.29,3.56,4.23,6.25,.94,2.69,1.41,5.91,1.41,9.67s-.47,6.99-1.41,9.67Z"/><path class="cls-1" d="M683.31,71.81c0,3.09-.49,5.61-1.46,7.56-.98,1.95-2.25,3.34-3.83,4.18-1.58,.84-3.34,1.26-5.29,1.26-2.89,0-5.14-.97-6.75-2.92-1.62-1.95-2.42-4.94-2.42-8.97V39.06h-15.01v35.67c0,4.7,.79,8.67,2.37,11.89,1.58,3.22,3.8,5.64,6.65,7.26,2.86,1.61,6.13,2.41,9.83,2.41s6.7-.76,9.42-2.27c2.72-1.51,4.89-3.81,6.5-6.9h.2v7.36h14.81V39.06h-15.01v32.75Z"/><path class="cls-1" d="M759.44,81.83c-.57-.57-.86-1.56-.86-2.97v-22.07c0-3.96-.84-7.4-2.52-10.33-1.68-2.92-4.35-5.19-8.01-6.8-3.66-1.62-8.38-2.42-14.16-2.42-8.4,0-14.73,1.73-18.99,5.19-4.27,3.46-6.6,8.31-7,14.56h15.92c.07-2.68,1.02-4.75,2.87-6.19,1.85-1.44,4.42-2.17,7.71-2.17,2.75,0,4.97,.55,6.65,1.66,1.68,1.11,2.52,2.74,2.52,4.89,0,1.75-.62,3.11-1.86,4.08-1.25,.97-3.17,1.46-5.79,1.46h-9.07c-6.05,0-11.07,1.46-15.07,4.38-4,2.92-5.99,7.37-5.99,13.35,0,3.76,.82,6.99,2.47,9.67,1.65,2.69,3.93,4.72,6.85,6.09,2.92,1.38,6.23,2.06,9.92,2.06,4.3,0,8.1-.96,11.39-2.87,3.29-1.92,5.78-4.75,7.46-8.52h.2v1.31c0,2.69,.84,4.74,2.52,6.15,1.68,1.41,4.17,2.12,7.46,2.12h10.28v-11.79h-1.91c-1.41,0-2.4-.29-2.97-.86Zm-15.87-11.74c0,3.36-.64,6.09-1.92,8.21-1.27,2.11-2.9,3.68-4.89,4.68-1.98,1.01-4.18,1.51-6.6,1.51-2.75,0-4.83-.64-6.25-1.91-1.41-1.28-2.11-2.92-2.11-4.94s.67-3.61,2.01-4.79c1.35-1.17,3.39-1.83,6.15-1.96l3.73-.3c2.62-.2,4.7-.71,6.25-1.51,1.55-.81,2.69-1.98,3.43-3.53h.2v4.54Z"/><path class="cls-1" d="M790.83,41.08c-2.01,1.34-3.73,3.39-5.14,6.15h-.2v-8.16h-14.81v55.42h15.01V62.13c0-3.96,.79-6.83,2.37-8.61,1.57-1.78,4.08-2.67,7.5-2.67h8.46v-11.79h-5.44c-3.16,0-5.74,.67-7.76,2.02Z"/><path class="cls-1" d="M833.6,81.13c-1.11-1.04-1.66-2.7-1.66-4.99v-25.29h16.32v-11.79h-16.32v-15.11h-14.91v15.11h-10.48v11.79h10.48v28.42c0,5.11,1.28,8.92,3.83,11.44,2.55,2.52,6.38,3.78,11.49,3.78h16.12v-11.79h-9.88c-2.21,0-3.88-.52-4.99-1.56Z"/><path class="cls-1" d="M892.99,40.37c-4.03-2.08-8.7-3.12-14-3.12s-10.13,1.16-14.26,3.48c-4.13,2.32-7.37,5.69-9.72,10.12-2.35,4.44-3.53,9.74-3.53,15.92s1.14,11.49,3.43,15.92c2.28,4.43,5.5,7.81,9.67,10.12,4.17,2.32,9,3.48,14.51,3.48,4.57,0,8.67-.79,12.29-2.37,3.62-1.58,6.61-3.78,8.97-6.6,2.35-2.82,3.93-6.11,4.73-9.88h-15.31c-.67,2.35-1.91,4.18-3.73,5.49-1.81,1.31-4.03,1.96-6.65,1.96-2.35,0-4.42-.57-6.19-1.71-1.78-1.14-3.17-2.77-4.18-4.89-1.01-2.12-1.55-4.62-1.61-7.51h38.59v-5.74c0-6.05-1.16-11.15-3.48-15.31-2.32-4.17-5.49-7.29-9.52-9.37Zm-25.49,20.25c.13-2.28,.67-4.33,1.61-6.15,.94-1.81,2.28-3.24,4.03-4.28,1.75-1.04,3.86-1.56,6.35-1.56s4.5,.52,6.25,1.56c1.75,1.04,3.06,2.47,3.93,4.28,.87,1.82,1.31,3.86,1.31,6.15h-23.47Z"/><path class="cls-1" d="M933.5,41.08c-2.01,1.34-3.73,3.39-5.14,6.15h-.2v-8.16h-14.81v55.42h15.01V62.13c0-3.96,.79-6.83,2.37-8.61,1.57-1.78,4.08-2.67,7.5-2.67h8.46v-11.79h-5.44c-3.16,0-5.74,.67-7.76,2.02Z"/><path class="cls-1" d="M995.11,65.16c-3.26-3.09-8.15-4.64-14.66-4.64h-6.65c-2.48,0-4.38-.47-5.69-1.41-1.31-.94-1.96-2.35-1.96-4.23s.76-3.48,2.27-4.59c1.51-1.1,3.61-1.66,6.3-1.66,2.96,0,5.21,.7,6.75,2.11,1.54,1.41,2.35,3.5,2.41,6.25h15.11c-.06-3.96-1.04-7.42-2.92-10.38-1.88-2.96-4.65-5.25-8.31-6.9-3.66-1.64-8.08-2.47-13.25-2.47s-9.19,.76-12.85,2.27c-3.66,1.51-6.46,3.64-8.41,6.4-1.95,2.76-2.92,5.95-2.92,9.57,0,4.84,1.64,8.7,4.94,11.59,3.29,2.89,7.89,4.33,13.8,4.33h6.05c3.02,0,5.25,.55,6.7,1.66,1.45,1.1,2.17,2.67,2.17,4.68,0,1.48-.35,2.76-1.06,3.83-.7,1.07-1.75,1.9-3.12,2.47-1.38,.57-3.07,.86-5.09,.86-3.09,0-5.49-.7-7.2-2.11-1.71-1.41-2.6-3.63-2.67-6.65h-15.52c.07,4.1,1.09,7.66,3.07,10.68,1.98,3.02,4.85,5.36,8.61,7,3.76,1.64,8.36,2.47,13.8,2.47s10.04-.8,13.8-2.41c3.76-1.62,6.6-3.84,8.52-6.7,1.91-2.86,2.87-6.16,2.87-9.93,0-4.97-1.63-9-4.89-12.09Z"/><path class="cls-1" d="M118.49,86.21l.2,.96h0l-.2-.96c-2.51,.52-5,.99-7.41,1.41l-1.69,.29v26.92h26.95v-32.82l-2.53,.63c-4.57,1.14-9.96,2.45-15.33,3.56Z"/><path class="cls-1" d="M68.28,87.9h0c-5.38-.89-10.96-2.33-16.58-4.29l-2.7-.94v32.17h26.95v-25.83l-1.77-.23c-1.9-.25-3.83-.54-5.9-.88Z"/><path class="cls-1" d="M230.33,105.85h0c-4.45-3.32-8.97-7.03-13.82-11.32l-.72-.64-.95,.15c-1.73,.27-3.49,.41-5.24,.41-12.71,0-24.21-7.06-30.02-18.42l-.58-1.13-1.27,.02c-2.92,.05-5.92,.26-9.22,.62-3.34,.52-6.78,1.15-10.52,1.93l-2.31,.48,.81,2.21c8.14,22.2,29.49,37.12,53.11,37.12,8.4,0,16.5-1.82,24.08-5.4l3.31-1.56-3.08-1.99c-1.26-.81-2.47-1.65-3.6-2.49Z"/><path class="cls-1" d="M285.64,90.17c-8.92-.22-17.93-2.16-26.12-5.6,5.77-10.1,8.33-21.95,7.22-33.48-2.01-20.82-15.85-39.27-35.26-47.02-5.47-2.18-11.13-3.5-16.82-3.93-17.97-1.34-36.28,6.48-47.78,20.41l-.07,.08c-2.9,3.5-5.38,7.39-7.37,11.57-.95,1.99-1.78,4.03-2.48,6.09-.09,.26-.24,.91-.54,2.13-.29,1.21-.79,3.31-1.07,4.17-6.17,1.27-12.29,2.84-18.99,4.6V1.59h-26.95V55.61c-8.03,1.44-15.19,2.07-21.88,1.93-3.82-.08-7.71-.44-11.58-1.07V1.59h-26.95V47.62c-11.66-5.77-23.09-13.91-34.91-24.83l-.79-.74L0,39.72l.67,.6c28.55,25.42,56.04,38.25,84.06,39.2,17.43,.59,34.84-3.34,51.07-7.69l2.58-.69c15.01-4.03,30.52-8.2,45.98-7.08,13.11,.96,22.18,8.49,31.77,16.47,.9,.75,1.8,1.5,2.72,2.25,1.43,1.18,2.86,2.38,4.3,3.58,7.82,6.55,15.9,13.33,25.28,17.49,9.06,4.02,19.64,6.68,32.32,8.13,2.27,.25,5.87,.32,8.48,.34h.98s0-22.12,0-22.12h-.98c-1.27,0-2.63,0-3.59-.02Zm-45.32-18.05c-2.14-1.84-4.23-3.73-6.26-5.56-7.28-6.57-16.33-14.75-26.97-19.35h0c-8.23-3.56-17.19-5.38-26.63-5.43h-.3c1.27-2.6,2.87-5.02,4.77-7.22,.05-.06,.1-.11,.14-.16h0c11.91-13.65,33.57-15.23,47.29-3.46l.22,.2c11.55,10.08,14.77,27.5,7.73,40.99Z"/></svg>