<svg width="256" height="256" viewBox="0 0 256 256" fill="none" xmlns="http://www.w3.org/2000/svg">
<rect width="256" height="256" fill="black"/>
<path d="M40.2266 210H75.3828V137.344H87.3359V210H122.492V41.9531H87.3359V107.461H75.3828V41.9531H40.2266V210ZM170.656 232.031H207.57L193.039 209.648C208.859 204.141 216.711 190.547 216.711 170.508V81.4453C216.711 55.1953 201.594 39.6094 174.523 39.6094C147.453 39.6094 132.336 55.8984 132.336 81.4453V170.508C132.336 193.242 142.297 207.539 162.805 211.406L170.656 232.031ZM169.133 176.602V75.3516C169.133 71.6016 170.773 68.9062 174.523 68.9062C178.156 68.9062 179.914 71.8359 179.914 75.3516V176.602C179.914 180.352 178.273 183.047 174.523 183.047C170.773 183.047 169.133 180.352 169.133 176.602Z" fill="white"/>
</svg>
