<svg width="168" height="24" viewBox="0 0 168 24" fill="none" xmlns="http://www.w3.org/2000/svg">
<path d="M0.32 19H4.064V11.992H10.448V19H14.192V2.2H10.448V9.088H4.064V2.2H0.32V19ZM22.9154 19.432C26.2514 19.432 28.5314 17.608 29.1074 14.944H25.4594C25.1234 16.024 24.2594 16.72 22.9874 16.72C21.3074 16.72 20.2034 15.448 20.1314 13.36H29.3234V11.992C29.3234 7.552 26.5874 5.368 22.8914 5.368C19.0754 5.368 16.3394 7.888 16.3394 12.4C16.3394 16.888 19.0034 19.432 22.9154 19.432ZM20.1554 10.936C20.2514 9.328 21.1634 8.08 23.0114 8.08C24.8114 8.08 25.7474 9.28 25.7474 10.936H20.1554ZM39.7379 16.72H39.7859V17.032C39.7859 18.304 40.6019 19 42.1619 19H44.6099V16.192H44.1539C43.4819 16.192 43.2419 15.952 43.2419 15.28V10.024C43.2419 7.312 41.6339 5.368 37.3619 5.368C33.2099 5.368 31.3619 7.216 31.1699 10.072H34.9619C35.0099 8.824 35.8979 8.08 37.4819 8.08C38.7059 8.08 39.6659 8.56 39.6659 9.64C39.6659 10.456 39.1139 10.96 37.8419 10.96H35.6819C33.0659 10.96 30.6659 12.16 30.6659 15.184C30.6659 17.968 32.6579 19.432 35.2499 19.432C37.2179 19.432 38.9219 18.568 39.7379 16.72ZM34.4819 14.992C34.4819 14.056 35.1299 13.456 36.4259 13.384L37.3139 13.312C38.5619 13.216 39.2579 12.856 39.6179 12.112H39.6659V13.192C39.6659 15.688 38.0579 16.624 36.4739 16.624C35.0819 16.624 34.4819 15.904 34.4819 14.992ZM51.359 19.432C53.231 19.432 54.695 18.52 55.463 17.008H55.511C55.487 17.488 55.487 17.92 55.487 18.424V19H59.039V0.256H55.463V6.52C55.463 6.952 55.463 7.336 55.511 7.792H55.463C54.695 6.28 53.231 5.368 51.359 5.368C48.311 5.368 45.671 7.792 45.671 12.4C45.671 17.008 48.311 19.432 51.359 19.432ZM49.487 12.4C49.487 9.76 50.543 8.08 52.487 8.08C54.455 8.08 55.487 9.76 55.487 12.4C55.487 15.04 54.455 16.72 52.487 16.72C50.543 16.72 49.487 15.04 49.487 12.4ZM70.9145 18.424V23.8H74.4665V5.8H70.8905V6.52C70.8905 6.952 70.8905 7.336 70.9385 7.792H70.8905C70.1225 6.28 68.6585 5.368 66.7865 5.368C63.7385 5.368 61.0985 7.792 61.0985 12.4C61.0985 17.008 63.7385 19.432 66.7865 19.432C68.6585 19.432 70.1225 18.52 70.8905 17.008H70.9385C70.9145 17.488 70.9145 17.92 70.9145 18.424ZM64.9145 12.4C64.9145 9.76 65.9705 8.08 67.9145 8.08C69.8825 8.08 70.9145 9.76 70.9145 12.4C70.9145 15.04 69.8825 16.72 67.9145 16.72C65.9705 16.72 64.9145 15.04 64.9145 12.4ZM81.4494 19.432C83.1054 19.432 84.4494 18.736 85.2414 17.248H85.2894V19H88.8174V5.8H85.2414V13.6C85.2414 15.88 84.0174 16.696 82.7214 16.696C81.3774 16.696 80.5374 15.832 80.5374 13.864V5.8H76.9614V14.296C76.9614 17.704 78.8334 19.432 81.4494 19.432ZM99.9011 16.72H99.9491V17.032C99.9491 18.304 100.765 19 102.325 19H104.773V16.192H104.317C103.645 16.192 103.405 15.952 103.405 15.28V10.024C103.405 7.312 101.797 5.368 97.5251 5.368C93.3731 5.368 91.5251 7.216 91.3331 10.072H95.1251C95.1731 8.824 96.0611 8.08 97.6451 8.08C98.8691 8.08 99.8291 8.56 99.8291 9.64C99.8291 10.456 99.2771 10.96 98.0051 10.96H95.8451C93.2291 10.96 90.8291 12.16 90.8291 15.184C90.8291 17.968 92.8211 19.432 95.4131 19.432C97.3811 19.432 99.0851 18.568 99.9011 16.72ZM94.6451 14.992C94.6451 14.056 95.2931 13.456 96.5891 13.384L97.4771 13.312C98.7251 13.216 99.4211 12.856 99.7811 12.112H99.8291V13.192C99.8291 15.688 98.2211 16.624 96.6371 16.624C95.2451 16.624 94.6451 15.904 94.6451 14.992ZM106.53 19H110.106V11.296C110.106 9.376 110.85 8.608 112.458 8.608H114.474V5.8H113.178C111.642 5.8 110.754 6.448 110.106 7.744H110.058V5.8H106.53V19ZM121.445 19H125.285V16.192H122.933C121.925 16.192 121.349 15.76 121.349 14.632V8.608H125.237V5.8H121.349V2.2H117.797V5.8H115.301V8.608H117.797V15.376C117.797 17.8 119.021 19 121.445 19ZM132.835 19.432C136.171 19.432 138.451 17.608 139.027 14.944H135.379C135.043 16.024 134.179 16.72 132.907 16.72C131.227 16.72 130.123 15.448 130.051 13.36H139.243V11.992C139.243 7.552 136.507 5.368 132.811 5.368C128.995 5.368 126.259 7.888 126.259 12.4C126.259 16.888 128.923 19.432 132.835 19.432ZM130.075 10.936C130.171 9.328 131.083 8.08 132.931 8.08C134.731 8.08 135.667 9.28 135.667 10.936H130.075ZM141.234 19H144.81V11.296C144.81 9.376 145.554 8.608 147.162 8.608H149.178V5.8H147.882C146.346 5.8 145.458 6.448 144.81 7.744H144.762V5.8H141.234V19ZM156.109 19.432C160.045 19.432 162.109 17.584 162.109 14.896C162.109 12.688 160.741 10.912 157.453 10.912H155.869C154.693 10.912 154.045 10.456 154.045 9.568C154.045 8.632 154.789 8.08 156.085 8.08C157.501 8.08 158.245 8.776 158.269 10.072H161.869C161.821 7.264 159.805 5.368 156.037 5.368C152.461 5.368 150.277 7.12 150.277 9.712C150.277 11.992 151.885 13.504 154.741 13.504H156.181C157.669 13.504 158.293 14.104 158.293 15.016C158.293 16.048 157.549 16.72 156.085 16.72C154.669 16.72 153.757 16.096 153.733 14.632H150.037C150.085 17.56 152.149 19.432 156.109 19.432ZM164.029 19H167.869V15.256H164.029V19Z" fill="#535251"/>
</svg>
